<?xml version="1.0" standalone="no"?> <!DOCTYPE svg PUBLIC "-//W3C//DTD SVG 1.0//EN" "http://www.w3.org/TR/2001/REC-SVG-20010904/DTD/svg10.dtd" > <svg xmlns="http://www.w3.org/2000/svg" width="100%" height="100%">
<defs >
<font id="pfagorasansproreg" horiz-adv-x="428" ><font-face
    font-family="PF Agora Sans Pro"
    units-per-em="1000"
    panose-1="2 0 5 0 0 0 0 2 0 4"
    ascent="750"
    descent="-250"
    alphabetic="0" />
<missing-glyph horiz-adv-x="436" d="M0 685H436V0H0V685ZM368 40L218 306L68 40H368ZM368 645H68L218 379L368 645ZM40 72L193 343L40 614V72ZM396 70V617L243 342L396 70Z" />
<glyph unicode=" " glyph-name="space" horiz-adv-x="272" />
<glyph unicode="!" glyph-name="exclam" horiz-adv-x="225" d="M153 696L151 399L142 170H87L77 399L73 696H153ZM113 93Q136 93 151 78T166 42Q166 20 151 5T113 -11Q90 -11 75 4T59 42Q59 63 74 78T113 93Z" />
<glyph unicode="&quot;" glyph-name="quotedbl" horiz-adv-x="272" d="M169 482L155 685H228L215 482H169ZM60 482L46 685H120L105 482H60Z" />
<glyph unicode="#" glyph-name="numbersign" horiz-adv-x="533" d="M418 410L381 242H456L447 195H371L329 0H277L319 195H173L130 0H78L121 195H46L55 242H131L168 410H88L97 456H178L217 628H268L230 456H377L415 628H467L429 456H498L489 410H418ZM183 242H330L366
410H220L183 242Z" />
<glyph unicode="$" glyph-name="dollar" horiz-adv-x="558" d="M292 731H330V667Q361 665 394 657T455 631L435 575Q397 592 374 598T330 606V365Q362 353 392 340T447 306T485 258T500 187Q500 146 487 116T452 63T398 28T330 8V-75H292V731ZM258 -75H221V5Q181
9 142 20T68 52L93 110Q140 86 169 79T221 69V329Q191 339 164 353T117 386T85 431T73 493Q73 566 115 608T221 664V731H258V-75ZM430 188Q430 232 402 256T330 296V71Q378 79 404 107T430 188ZM142 499Q142 454 164 433T221 398V601Q188 592 165 568T142 499Z"
/>
<glyph unicode="%" glyph-name="percent" horiz-adv-x="820" d="M345 463Q345 427 338 391T311 327T261 280T184 262Q133 262 101 279T51 324T27 388T20 462Q20 496 26 532T51 599T101 649T186 669Q239 669 270 649T318 598T340 531T345 463ZM277 462Q277 483
275 510T264 560T237 600T186 616Q153 616 134 601T104 562T91 512T88 461Q88 430 91 403T105 356T135 325T186 313Q214 313 232 326T260 361T273 409T277 462ZM292 -22H236L530 701H584L292 -22ZM800 198Q800 162 793 126T766 62T716 15T639 -3Q588 -3 556 14T506
59T482 123T475 197Q475 231 481 267T506 334T556 384T641 404Q694 404 725 384T773 333T795 266T800 198ZM732 197Q732 218 730 245T719 295T692 335T641 351Q608 351 589 336T559 297T546 247T543 196Q543 165 546 138T560 91T590 60T641 48Q669 48 687 61T715
96T728 144T732 197Z" />
<glyph unicode="&amp;" glyph-name="ampersand" horiz-adv-x="726" d="M254 -11Q208 -11 168 1T98 37T51 97T34 183Q34 250 77 303T200 400Q170 442 158 473T146 536Q146 564 155 590T182 636T227 668T291 680Q330 680 357 669T402 639T428 597T437 548Q437 520
427 497T399 453T356 415T299 378Q322 344 350 308T407 234Q425 213 443 192T482 149Q503 169 521 193T554 248T579 318T593 407H660Q657 353 646 309T618 228T579 161T528 105Q564 70 602 44T678 2L647 -54Q630 -47 608 -35T563 -7T517 27T474 63Q425 27 368 8T254
-11ZM338 213Q311 248 285 282T236 347Q181 317 145 279T108 187Q108 152 119 126T151 83T198 58T255 49Q297 49 341 64T428 107Q402 133 380 160T338 213ZM219 541Q219 516 231 490T266 432Q287 443 305 454T338 480T361 510T369 548Q369 581 348 601T289 622Q269
622 256 614T235 594T223 567T219 541Z" />
<glyph unicode="&apos;" glyph-name="quotesingle" horiz-adv-x="193" d="M74 482L60 685H135L120 482H74Z" />
<glyph unicode="(" glyph-name="parenleft" horiz-adv-x="285" d="M60 285Q60 368 76 437T116 560T165 652T208 713L243 691Q232 674 214 640T178 554T148 436T135 286Q135 194 147 122T177 -3T213 -92T244 -146L208 -171Q191 -150 166 -111T118 -14T77 117T60 285Z" />
<glyph unicode=")" glyph-name="parenright" horiz-adv-x="287" d="M216 285Q216 192 199 118T159 -14T110 -110T67 -171L32 -146Q44 -127 62 -92T98 -4T128 122T141 286Q141 368 129 435T99 554T63 639T33 691L68 713Q86 691 111 653T159 560T199 437T216 285Z" />
<glyph unicode="*" glyph-name="asterisk" horiz-adv-x="389" d="M215 577Q240 590 265 603T316 631Q333 612 337 594T343 552Q313 549 284 545T225 538L309 459Q283 426 244 410L194 516L145 411Q125 419 110 429T78 459L162 539L49 554Q51 578 57 597T75 634L176
577Q171 605 165 633T153 690Q164 693 175 694T197 695Q208 695 218 694T238 690L215 577V577Z" />
<glyph unicode="+" glyph-name="plus" horiz-adv-x="558" d="M313 270V102H253V270H89V328H253V490H313V328H476V270H313Z" />
<glyph unicode="," glyph-name="comma" horiz-adv-x="210" d="M48 44Q48 65 64 81T103 97Q129 97 145 79T161 33Q161 12 154 -11T133 -55T101 -95T60 -124L40 -98Q80 -59 85 -5Q68 0 58 13T48 44Z" />
<glyph unicode="-" glyph-name="hyphen" horiz-adv-x="366" d="M54 230V298H312V230H54Z" />
<glyph unicode="." glyph-name="period" horiz-adv-x="208" d="M154 44Q154 21 138 6T101 -10Q78 -10 63 5T47 44Q47 66 62 81T100 97Q123 97 138 82T154 44Z" />
<glyph unicode="/" glyph-name="slash" horiz-adv-x="333" d="M69 -28H15L271 701H325L69 -28Z" />
<glyph unicode="0" glyph-name="zero" horiz-adv-x="558" d="M523 329Q523 269 511 209T472 101T398 23T282 -7Q204 -7 156 22T80 98T44 205T34 327Q34 383 44 444T81 557T156 641T283 674Q336 674 374 658T439 616T482 554T508 481T520 403T523 329ZM441 327Q441
366 438 415T418 507T371 579T283 609Q227 609 194 581T143 511T121 418T116 325Q116 269 122 220T147 135T197 78T283 57Q331 57 362 81T410 143T434 230T441 327Z" />
<glyph unicode="1" glyph-name="one" horiz-adv-x="558" d="M247 585L98 575V631L253 664H327V0H247V585Z" />
<glyph unicode="2" glyph-name="two" horiz-adv-x="558" d="M154 61H482V0H41V55Q68 81 103 113T175 181T247 255T311 333T356 410T373 483Q373 547 335 576T236 606Q211 606 168 598T66 554L38 602Q68 624 98 638T155 660T207 671T250 674Q295 674 333 663T398
629T440 572T456 491Q456 431 423 371T343 256T244 152T152 66L154 61Z" />
<glyph unicode="3" glyph-name="three" horiz-adv-x="558" d="M352 598L69 599V664H459Q463 651 466 639T472 614L265 408L268 401H283Q327 401 365 390T430 355T473 295T489 209Q489 154 469 113T416 45T338 5T244 -9Q187 -8 138 1T44 30L64 88Q119 72 158 65T228
58Q310 58 358 94T407 208Q407 274 359 307T220 340Q206 340 193 339T165 336L150 384L356 591L352 598Z" />
<glyph unicode="4" glyph-name="four" horiz-adv-x="558" d="M429 184V0H351Q351 46 351 92T352 184H32V242L344 664H429V244H526V184H429ZM347 568Q287 487 229 406T109 244H353V568H347Z" />
<glyph unicode="5" glyph-name="five" horiz-adv-x="558" d="M251 354Q222 354 193 347T137 327L89 359L109 664H464V599H176L163 397Q177 401 203 409T275 417Q316 417 355 406T425 369T475 305T494 210Q494 154 474 113T421 45T345 5T254 -9Q199 -9 147 0T49
31L68 89Q124 72 163 66T234 59Q315 59 363 95T412 210Q412 246 399 273T364 318T313 345T251 354Z" />
<glyph unicode="6" glyph-name="six" horiz-adv-x="558" d="M137 366Q175 386 215 400T306 415Q345 415 381 404T446 367T490 303T507 209Q507 158 491 118T445 51T374 8T282 -7Q214 -7 170 17T99 84T63 182T52 303Q52 384 68 452T116 569T198 646T316 674Q369
674 406 663T461 643Q456 629 452 615T443 586Q406 600 374 605T318 610Q262 610 227 583T171 518T142 438T132 369L137 366ZM291 352Q254 352 225 345T176 328T145 310T133 301V280Q133 248 137 209T158 136T203 79T284 56Q355 56 391 98T428 205Q428 237 421
264T398 310T356 341T291 352Z" />
<glyph unicode="7" glyph-name="seven" horiz-adv-x="558" d="M78 599V664H483V605L210 0H133L404 599H78Z" />
<glyph unicode="8" glyph-name="eight" horiz-adv-x="558" d="M162 508Q162 483 174 465T207 433T256 406T317 378Q369 413 389 442T410 503Q410 520 403 539T381 574T342 600T283 611Q249 611 226 600T189 573T168 539T162 508ZM277 53Q349 53 388 89T427 181Q427
210 413 231T374 271T312 305T230 341Q200 323 181 302T151 259T135 216T130 175Q130 150 139 128T166 89T212 63T277 53ZM487 514Q487 496 483 476T468 436T438 393T388 349Q411 337 432 321T470 282T495 234T505 176Q505 137 489 104T443 45T370 6T274 -8Q164
-8 106 40T48 165Q48 190 54 218T74 273T112 325T171 370Q123 398 101 428T79 508Q79 544 94 574T137 627T203 663T286 676Q321 676 356 667T421 639T468 588T487 514Z" />
<glyph unicode="9" glyph-name="nine" horiz-adv-x="558" d="M413 301Q376 279 336 265T244 251Q204 251 168 262T104 299T60 363T43 457Q43 508 59 548T105 616T176 659T268 674Q335 674 379 650T450 583T487 484T498 363Q498 282 482 215T434 98T351 22T234
-6Q180 -6 139 4T80 24Q85 38 89 52T98 81Q135 67 171 62T232 57Q287 57 322 84T378 149T407 229T418 298L413 301ZM259 314Q296 314 325 321T374 338T404 356T417 365V387Q417 418 413 456T392 527T347 584T266 607Q194 607 158 567T122 461Q122 429 129 402T152
356T194 325T259 314Z" />
<glyph unicode=":" glyph-name="colon" horiz-adv-x="205" d="M158 46Q158 24 144 8T105 -8Q82 -8 67 8T51 46Q51 68 66 83T104 99Q127 99 142 84T158 46ZM158 360Q158 337 142 322T105 306Q83 306 67 322T51 360Q51 383 66 398T104 413Q127 413 142 398T158 360Z" />
<glyph unicode=";" glyph-name="semicolon" horiz-adv-x="205" d="M158 360Q158 337 142 322T105 306Q83 306 67 322T51 360Q51 383 66 398T104 413Q127 413 142 398T158 360ZM48 44Q48 65 64 81T103 97Q129 97 145 79T161 33Q161 12 154 -10T133 -54T101 -94T60
-123L40 -96Q81 -59 85 -5Q68 0 58 13T48 44Z" />
<glyph unicode="&lt;" glyph-name="less" horiz-adv-x="558" d="M482 71L84 272V322L482 522V454L157 298L482 138V71Z" />
<glyph unicode="=" glyph-name="equal" horiz-adv-x="558" d="M77 345V403H480V345H77ZM77 200V257H480V200H77Z" />
<glyph unicode="&gt;" glyph-name="greater" horiz-adv-x="558" d="M84 138L409 298L84 454V522L482 322V272L84 71V138Z" />
<glyph unicode="?" glyph-name="question" horiz-adv-x="441" d="M255 444Q288 473 307 500T327 560Q327 581 319 595T296 619T261 632T218 637Q188 637 151 632T61 610Q56 626 52 641T42 672Q90 689 137 696T223 704Q319 704 366 667T414 562Q414 525 398 495T358
438T306 389T254 343T214 297T198 246Q198 229 201 213T207 174L141 165Q134 194 132 217T129 256Q129 284 137 307T162 351T201 395T255 444ZM243 41Q243 19 228 5T191 -10Q169 -10 154 5T138 41Q138 62 153 77T190 92Q213 92 228 77T243 41Z" />
<glyph unicode="@" glyph-name="at" horiz-adv-x="926" d="M482 697Q567 697 634 672T749 602T821 494T846 353Q845 300 830 260T789 194T731 154T664 140Q632 140 599 154T551 198Q527 174 491 159T413 143Q378 143 356 154T321 183T304 220T299 257Q299 307
331 336T424 372L538 382V404Q538 451 522 468T461 486Q435 486 405 481T341 464L333 490Q331 495 329 502T324 515Q359 530 398 538T476 547Q536 547 570 518T605 416V257Q605 228 621 212T673 195Q693 195 713 204T749 232T776 280T787 351Q787 419 766 473T704
565T608 623T482 643Q412 643 350 619T241 552T167 451T139 325Q139 256 163 198T229 97T329 30T454 6Q482 6 514 10T584 28L601 -21Q572 -34 533 -41T456 -49Q372 -49 303 -21T184 56T107 174T80 323Q80 404 111 472T198 591T326 669T482 697ZM445 325Q415 322
394 306T373 263Q373 232 388 216T439 199Q486 199 538 242V333L445 325Z" />
<glyph unicode="A" glyph-name="A" horiz-adv-x="579" d="M479 0Q465 45 451 89T423 179H153Q139 134 125 90T97 0H10Q71 186 128 357T236 685H344L568 0H479ZM403 244Q380 320 357 396T310 548L290 615H287L267 547Q256 510 245 475T223 403T200 327T174 244H403Z" />
<glyph unicode="B" glyph-name="B" horiz-adv-x="609" d="M80 684H326Q376 684 414 671T477 635T514 579T527 509Q527 467 507 426T433 358Q467 347 488 327T523 282T541 232T546 186Q546 144 531 110T489 51T427 13T353 0H80V684ZM462 194Q462 219 454 242T428
284T385 312T325 323H164V65H325Q362 65 388 75T430 103T454 144T462 194ZM442 502Q442 553 411 586T307 619H164V387H307Q373 387 407 418T442 502Z" />
<glyph unicode="C" glyph-name="C" horiz-adv-x="593" d="M360 696Q416 696 459 688T533 668L515 605Q474 619 437 623T368 628Q312 628 271 608T202 551T162 459T148 338Q148 279 157 229T192 141T260 82T370 60Q383 60 403 61T445 66T490 73T533 84L549 24Q531
17 508 11T458 1T406 -5T355 -8Q273 -8 217 17T126 87T76 197T60 338Q60 375 65 415T84 496T120 572T176 635T254 679T360 696Z" />
<glyph unicode="D" glyph-name="D" horiz-adv-x="644" d="M80 0V685H303Q386 685 440 658T527 583T571 475T584 344Q584 274 570 212T523 102T434 28T294 0H80ZM167 620V66H284Q299 66 321 68T366 78T413 103T454 150T484 225T496 337Q496 404 486 451T458 529T419
579T374 606T329 617T289 620H167Z" />
<glyph unicode="E" glyph-name="E" horiz-adv-x="564" d="M80 0V684H497V620H165V393H445V331H165V65H513V0H80Z" />
<glyph unicode="F" glyph-name="F" horiz-adv-x="534" d="M80 0V684H494V619H165V388H437V324H165V0H80Z" />
<glyph unicode="G" glyph-name="G" horiz-adv-x="629" d="M375 696Q430 696 474 688T550 668L533 605Q490 619 452 623T382 628Q322 628 278 608T205 549T162 457T148 335Q148 278 157 228T191 142T256 84T360 62Q373 62 389 63T421 66T453 70T481 77V352H560V24Q509
7 457 0T353 -8Q272 -8 217 17T126 88T76 198T60 339Q60 375 65 416T84 496T121 572T180 635T263 679T375 696Z" />
<glyph unicode="H" glyph-name="H" horiz-adv-x="653" d="M486 0V327H166Q166 245 166 164T167 0H80V684H167Q167 611 167 540T166 396H486V684H573V0H486Z" />
<glyph unicode="I" glyph-name="I" horiz-adv-x="264" d="M90 0V685H174V0H90Z" />
<glyph unicode="J" glyph-name="J" horiz-adv-x="309" d="M124 685H209L208 131Q208 66 193 17T149 -69T77 -133T-23 -180L-47 -119Q1 -92 33 -67T86 -14T114 47T123 126L124 685Z" />
<glyph unicode="K" glyph-name="K" horiz-adv-x="580" d="M164 0H80V685H164V374L463 685H559L294 412L569 0H474L239 355L164 278V0Z" />
<glyph unicode="L" glyph-name="L" horiz-adv-x="537" d="M80 0V684H165V63H527V0H80Z" />
<glyph unicode="M" glyph-name="M" horiz-adv-x="821" d="M414 159Q446 232 479 305T545 452L649 684H741V0H659V535H657L597 398Q579 359 562 320T525 240Q506 196 487 154T448 68H369L304 216Q282 266 260 314T215 413Q202 444 189 474T163 534H161Q161 400
161 267T160 0H80V684H176L278 452L408 159H414Z" />
<glyph unicode="N" glyph-name="N" horiz-adv-x="682" d="M520 139V684H602V0H519L255 413L165 557Q164 557 164 557T161 556V0H80V684H165Q229 586 290 490T415 296L515 139H520Z" />
<glyph unicode="O" glyph-name="O" horiz-adv-x="698" d="M638 340Q638 266 620 202T567 92T478 19T354 -8Q274 -8 219 16T128 86T76 194T60 337Q60 408 75 473T125 587T216 666T354 695Q436 695 491 666T578 587T624 474T638 340ZM549 337Q549 388 542 440T513
534T454 604T354 631Q292 631 252 606T189 540T157 445T148 336Q148 199 196 128T354 57Q404 57 441 79T502 139T537 228T549 337Z" />
<glyph unicode="P" glyph-name="P" horiz-adv-x="555" d="M517 486Q517 455 508 419T475 353T412 302T313 281H165L166 0H80V685H304Q351 685 390 673T457 635T501 573T517 486ZM165 620V345H301Q325 345 348 351T389 374T419 416T430 483Q430 518 420 544T392
587T350 612T297 620H165Z" />
<glyph unicode="Q" glyph-name="Q" horiz-adv-x="699" d="M637 339Q637 284 627 235T598 144T549 72T481 21L635 -20Q627 -37 621 -55T608 -91Q551 -72 496 -54T383 -15L353 -11Q274 -6 219 18T128 86T76 193T60 337Q60 408 75 473T125 587T216 666T353 695Q435
695 490 666T577 587T623 473T637 339ZM549 337Q549 387 542 439T513 533T454 603T353 630Q291 630 251 605T188 539T156 444T147 335Q147 198 195 127T353 56Q404 56 441 78T502 138T537 227T549 337Z" />
<glyph unicode="R" glyph-name="R" horiz-adv-x="587" d="M519 496Q519 435 489 386T398 319Q438 307 456 274T486 198L542 0H457L403 188Q393 221 381 242T353 276T317 293T272 298H164V0H80V685H315Q416 685 467 633T519 496ZM302 363Q322 363 345 368T387 387T419
427T432 492Q432 526 422 550T394 590T352 612T300 619H164V363H302Z" />
<glyph unicode="S" glyph-name="S" horiz-adv-x="573" d="M290 696Q333 696 383 688T478 653L451 593Q402 615 361 621T286 628Q226 628 188 598T150 504Q150 476 163 457T198 426T247 405T303 389Q340 380 379 369T450 336T502 279T523 188Q523 137 505 100T453
39T373 4T271 -8Q217 -8 159 4T50 45L79 107Q140 78 187 69T272 60Q350 60 393 87T437 188Q437 219 426 239T395 273T348 296T290 314Q245 326 204 339T132 372T82 423T63 502Q63 548 80 584T127 645T198 683T290 696Z" />
<glyph unicode="T" glyph-name="T" horiz-adv-x="563" d="M240 0V618H20V685H543V618H324L323 0H240Z" />
<glyph unicode="U" glyph-name="U" horiz-adv-x="665" d="M594 246Q594 189 578 142T530 62T448 10T332 -8Q195 -8 134 59T72 246V685H156V245Q156 151 202 104T333 57Q418 57 464 103T511 245L510 685H594V246Z" />
<glyph unicode="V" glyph-name="V" horiz-adv-x="554" d="M281 88L321 228L456 685H544L327 0H227L10 685H100L237 227L276 88H281Z" />
<glyph unicode="W" glyph-name="W" horiz-adv-x="837" d="M406 561Q398 523 390 485T373 409Q371 398 348 296T281 0H178L10 684H98Q121 582 144 481T191 277Q200 234 209 190T229 103H234L270 266Q282 322 294 374T317 477T340 579T364 684H454L564 271Q566 265
572 243T585 194T599 142T609 104H615Q625 149 635 195T654 286Q676 386 698 485T743 684H827Q784 499 742 328T661 0H561Q534 105 507 203T452 410Q442 448 433 485T413 560L406 561Z" />
<glyph unicode="X" glyph-name="X" horiz-adv-x="557" d="M227 356Q176 438 125 520T22 684H118Q159 615 199 547T281 410L446 684H541Q487 600 435 518T329 352L548 0H454Q409 74 365 147T275 296L101 0H8L227 356V356Z" />
<glyph unicode="Y" glyph-name="Y" horiz-adv-x="536" d="M220 296L10 685H99L193 505L263 366H267L343 511L438 685H525L309 300V0H220V296Z" />
<glyph unicode="Z" glyph-name="Z" horiz-adv-x="532" d="M47 685H493V621L126 69L511 68V0H22V64L388 617H47V685Z" />
<glyph unicode="[" glyph-name="bracketleft" horiz-adv-x="260" d="M54 -160V697H225V643H128V-105H225V-160H54Z" />
<glyph unicode="\" glyph-name="backslash" horiz-adv-x="333" d="M15 701H68L325 -28H270L15 701Z" />
<glyph unicode="]" glyph-name="bracketright" horiz-adv-x="260" d="M33 -160V-105H130V643H33V697H203V-160H33Z" />
<glyph unicode="^" glyph-name="asciicircum" horiz-adv-x="443" d="M354 381L219 618Q187 560 151 499T83 381H21Q66 456 108 531T196 681H244L416 381H354Z" />
<glyph unicode="_" glyph-name="underscore" horiz-adv-x="500" d="M0 -132V-85H500V-132H0Z" />
<glyph unicode="`" glyph-name="grave" horiz-adv-x="487" d="M132 674L192 731L315 569L277 535L132 674Z" />
<glyph unicode="a" glyph-name="a" horiz-adv-x="530" d="M227 225Q177 223 153 200T129 140Q129 97 150 76T219 55Q251 55 284 71T352 119V233L227 225ZM431 61H497L502 13Q484 4 461 -1T417 -7Q388 -7 372 5T354 55L353 56Q325 32 299 19T252 0T213 -7T184 -8Q142
-8 115 6T71 41T49 86T42 132Q42 196 87 234T227 279L352 287V318Q352 379 330 404T247 429Q211 429 172 422T96 402L78 457Q120 476 170 486T266 496Q343 496 387 460T431 334V61Z" />
<glyph unicode="b" glyph-name="b" horiz-adv-x="521" d="M142 457Q185 481 221 490T289 500Q342 500 377 481T434 427T464 345T473 242Q473 191 463 146T428 67T363 13T262 -7Q212 -7 159 4T58 37V711H140V568L137 461L142 457ZM273 432Q238 432 203 420T140
391V80Q171 66 201 62T257 57Q288 57 312 66T354 96T380 153T389 240Q389 298 381 335T357 394T320 424T273 432Z" />
<glyph unicode="c" glyph-name="c" horiz-adv-x="456" d="M132 246Q132 205 139 171T162 112T205 72T273 58Q311 58 344 66T414 89L436 35Q404 18 360 6T266 -6Q205 -6 163 12T96 64T59 141T48 238Q48 277 57 322T90 407T158 473T271 499Q304 499 339 495T412
474L393 415Q358 427 330 430T278 433Q207 433 170 382T132 246Z" />
<glyph unicode="d" glyph-name="d" horiz-adv-x="522" d="M383 46Q381 48 381 48Q351 23 311 9T231 -6Q178 -6 143 13T87 66T57 142T48 235Q48 291 58 339T92 422T154 478T246 499Q260 499 277 497T313 491T348 480T381 463V711H463V0H383V46ZM381 399Q373 405
359 411T328 422T293 431T258 434Q232 434 210 425T170 392T142 331T132 234Q132 183 141 149T165 95T203 66T253 57Q268 57 286 61T323 73T356 89T381 107V399Z" />
<glyph unicode="e" glyph-name="e" horiz-adv-x="505" d="M264 439Q229 439 205 426T166 391T143 340T133 280H382Q382 315 376 344T357 395T321 427T264 439ZM262 499Q311 499 344 486T400 452T434 405T451 353T458 304T459 266V227H132Q132 193 138 162T160
108T203 70T271 56Q314 56 349 65T427 91L447 39Q403 16 359 5T265 -6Q200 -6 158 14T92 67T58 146T48 243Q48 265 51 292T62 348T86 403T125 452T182 486T262 499Z" />
<glyph unicode="f" glyph-name="f" horiz-adv-x="365" d="M106 429H38V473L107 491V570Q107 643 146 681T264 720Q285 720 312 718T366 708L355 649Q337 652 317 654T281 656Q234 656 210 638T186 571V489H329V429H186L185 0H106V429Z" />
<glyph unicode="g" glyph-name="g" horiz-adv-x="549" d="M127 199Q102 213 83 242T63 324Q63 371 80 404T125 459T188 490T258 500Q283 500 306 498T351 488H509V436H433L431 431Q448 413 456 386T465 328Q465 288 450 257T407 205T343 172T260 161H206Q170 161
149 154T127 124Q127 108 141 100T178 91H306Q396 91 444 53T492 -57Q492 -93 476 -122T428 -173T353 -205T253 -216Q190 -216 150 -204T86 -172T53 -127T44 -73Q44 -31 65 -1T109 41Q80 47 65 65T49 112Q49 134 56 148T74 173T99 188T125 196L127 199ZM183 30Q173
27 163 18T144 -3T130 -30T124 -59Q124 -78 129 -95T151 -126T194 -148T265 -156Q335 -156 372 -130T410 -59Q410 -44 406 -28T390 1T354 22T294 30H183ZM382 328Q382 347 377 367T357 403T320 429T263 439Q205 439 176 410T146 328Q146 278 175 249T253 219Q281
219 304 225T345 245T372 279T382 328Z" />
<glyph unicode="h" glyph-name="h" horiz-adv-x="514" d="M144 445Q189 468 235 483T315 499Q365 499 393 485T435 448T452 397T455 342V0H374V322Q374 347 372 367T361 402T335 424T289 432Q254 432 213 417T140 384V0H58V711H139V553L136 449L144 445Z" />
<glyph unicode="i" glyph-name="i" horiz-adv-x="254" d="M85 0V488H166V0H85ZM181 616Q181 595 165 579T126 563Q105 563 89 579T73 616Q73 639 89 654T126 670Q149 670 165 655T181 616Z" />
<glyph unicode="j" glyph-name="j" horiz-adv-x="265" d="M94 488H175Q175 381 175 306T175 179T175 96T175 47T175 20T174 4Q172 -41 163 -74T134 -133T81 -179T0 -217Q-7 -203 -12 -190T-24 -162Q12 -141 35 -124T71 -87T89 -43T94 13V488ZM83 616Q83 639 98
654T136 670Q158 670 174 655T190 616Q190 594 174 579T136 563Q114 563 99 578T83 616Z" />
<glyph unicode="k" glyph-name="k" horiz-adv-x="453" d="M143 286Q192 337 242 387T341 488H433Q387 440 339 392T244 296Q252 285 260 276T277 255L448 0H358Q316 62 276 123T195 247L140 192V0H58V710H140V400L136 289L143 286Z" />
<glyph unicode="l" glyph-name="l" horiz-adv-x="228" d="M153 0H73V711H154L153 0Z" />
<glyph unicode="m" glyph-name="m" horiz-adv-x="809" d="M668 0V322Q668 348 665 368T652 403T625 424T579 431Q563 431 544 428T506 419T470 405T438 388Q442 371 443 353T444 322V0H363V338Q363 386 342 408T284 430Q248 430 210 417T139 383V0H58V488H137L138
444L142 441Q183 468 226 482T307 497Q346 497 376 483T425 438Q443 450 464 461T509 480T556 493T601 498Q653 498 682 483T727 444T746 391T750 335V0H668Z" />
<glyph unicode="n" glyph-name="n" horiz-adv-x="514" d="M374 0V322Q374 347 372 367T361 402T335 424T289 432Q254 432 213 417T140 384V0H58V488H138L139 446L142 444Q183 470 230 484T312 499Q362 499 390 485T433 448T451 397T455 342V0H374Z" />
<glyph unicode="o" glyph-name="o" horiz-adv-x="528" d="M480 243Q480 196 470 151T434 71T365 14T258 -8Q198 -8 158 12T93 67T59 146T48 241Q48 290 60 336T98 418T166 476T268 498Q329 498 370 476T435 419T470 337T480 243ZM395 241Q395 274 391 308T372
370T333 417T268 435Q227 435 201 418T160 373T139 310T133 241Q133 205 138 171T157 112T198 71T268 55Q308 55 332 71T371 115T390 175T395 241Z" />
<glyph unicode="p" glyph-name="p" horiz-adv-x="521" d="M143 441Q173 465 211 479T289 494Q341 494 376 475T433 422T463 344T472 250Q472 196 462 149T428 67T368 12T276 -9Q262 -9 245 -8T209 -3T172 7T139 25V-208H58V488H137L138 445L143 441ZM140 87Q148
81 162 75T192 64T227 55T262 52Q288 52 311 61T351 94T379 156T389 252Q389 303 380 336T355 390T317 418T267 427Q252 427 234 423T197 411T164 395T140 377V87Z" />
<glyph unicode="q" glyph-name="q" horiz-adv-x="522" d="M375 29Q333 6 299 -2T236 -11Q183 -11 148 6T90 55T59 130T49 226Q49 280 59 329T94 415T160 473T265 495Q318 495 368 484T463 452Q463 286 463 122T462 -208H382V-80Q382 -54 382 -28T383 25L375 29ZM248
55Q283 55 318 67T381 95V410Q352 423 324 427T269 432Q208 432 171 388T132 242Q132 187 140 151T164 94T200 64T248 55Z" />
<glyph unicode="r" glyph-name="r" horiz-adv-x="351" d="M152 419Q170 435 192 449T237 475T282 493T323 500Q334 500 341 495T348 475Q348 469 346 459T340 439T331 418T320 401Q278 396 236 391T151 380V0H69V488H149L146 423L152 419Z" />
<glyph unicode="s" glyph-name="s" horiz-adv-x="446" d="M65 88Q112 67 151 61T216 55Q239 55 259 59T295 72T318 96T327 133Q327 152 319 165T296 188T262 205T222 219Q190 230 161 241T108 267T71 305T57 361Q57 396 71 422T109 465T165 490T234 498Q249 498
268 496T306 490T345 480T380 463L355 406Q317 421 288 426T233 432Q214 432 196 429T165 417T143 394T134 360Q134 344 144 333T171 312T205 297T238 286Q269 276 299 266T353 239T391 198T406 134Q406 97 392 71T352 27T291 2T213 -6Q191 -6 168 -4T121 3T77
15T39 32L65 88Z" />
<glyph unicode="t" glyph-name="t" horiz-adv-x="356" d="M172 612V488H319V429H171V140Q171 105 184 83T239 60Q272 60 331 77L344 22Q317 9 285 2T222 -5Q91 -5 91 115V429H20V472L95 495L120 603L172 612Z" />
<glyph unicode="u" glyph-name="u" horiz-adv-x="504" d="M199 -11Q149 -11 121 3T79 39T62 90T58 145V488H139V165Q139 139 141 119T152 85T177 64T223 56Q251 56 290 71T365 118V488Q385 488 405 488T445 489V0H366L365 55L363 57Q339 36 315 23T270 2T230 -8T199 -11Z" />
<glyph unicode="v" glyph-name="v" horiz-adv-x="463" d="M9 487H92Q112 423 133 362T175 237Q189 195 202 150T230 63H235Q238 70 243 89T256 133T273 189T293 250L372 487H454L278 0H180L9 487Z" />
<glyph unicode="w" glyph-name="w" horiz-adv-x="720" d="M522 81L558 230L628 488H710L565 0H476L405 226L356 399H351L306 226L241 0H152L9 488H91L160 236L198 81H203L244 242L314 488H393L474 231L516 81H522Z" />
<glyph unicode="x" glyph-name="x" horiz-adv-x="432" d="M336 0Q306 51 276 102T215 204Q183 153 154 102T92 0H4L168 255Q130 313 94 371T19 488H110Q137 443 163 398T216 307Q244 352 270 397T324 488H414Q376 429 338 372T262 257Q304 192 344 129T427 0H336V0Z" />
<glyph unicode="y" glyph-name="y" horiz-adv-x="460" d="M260 155Q270 188 283 229T309 313T337 401T365 488H448Q425 418 401 345T353 199T304 53T256 -89Q238 -147 205 -181T115 -215Q104 -214 80 -213T10 -198L23 -141Q50 -147 67 -149T102 -152Q131 -152
150 -138T182 -84L210 3H171L18 488H97L197 153Q207 121 213 93T224 51H229L260 155Z" />
<glyph unicode="z" glyph-name="z" horiz-adv-x="411" d="M120 60H400V0H12V51L285 421L282 428H42V488H389V435L117 66L120 60Z" />
<glyph unicode="{" glyph-name="braceleft" horiz-adv-x="265" d="M190 -169Q156 -169 137 -156T109 -123T97 -82T95 -44V167Q95 182 93 198T84 230T64 256T29 272V317Q65 324 80 354T95 423V536Q95 557 96 585T105 640T131 684T183 702H242V648H219Q192 648 181
630T169 582V420Q169 400 167 380T158 344T140 315T109 296Q131 284 143 270T161 237T168 195T169 141V-50Q169 -77 177 -96T215 -115H242V-169H190Z" />
<glyph unicode="|" glyph-name="bar" horiz-adv-x="243" d="M89 -139V700H147V-139H89Z" />
<glyph unicode="}" glyph-name="braceright" horiz-adv-x="265" d="M24 -169V-115H51Q80 -115 88 -96T97 -50V141Q97 171 98 194T105 236T123 269T157 296Q138 302 127 314T109 343T100 380T97 420V582Q97 611 86 629T47 648H24V702H83Q117 702 135 684T161 640T170
586T171 536V423Q171 385 186 355T237 317V272Q215 268 202 257T182 230T173 199T171 167V-44Q171 -60 169 -81T158 -122T129 -155T76 -169H24Z" />
<glyph unicode="~" glyph-name="asciitilde" horiz-adv-x="558" d="M385 247Q355 247 328 254T275 270T226 286T182 294L109 247L75 275Q92 314 121 337T189 360Q212 360 240 353T296 337T351 321T397 313L465 361L498 334Q482 296 453 272T385 247Z" />
</font>
</defs>
</svg>
